<svg xmlns="http://www.w3.org/2000/svg" viewBox="0 0 326.43 133.66"><g id="Layer_2" data-name="Layer 2"><g id="Layer_1-2" data-name="Layer 1"><path d="M189.31,24.5c-19.83,1.26-38.75,6.94-56.69,15.51C110.29,50.67,88.33,62.13,66.27,73.36,51.75,80.76,36.79,86.3,20.14,86c-1.24,0-3,1.69-3.72,3-4,7.63-7.83,15.4-11.71,23.11a6.94,6.94,0,0,1-1.25,2.14,30.49,30.49,0,0,1-3.39,2.29c0-1.31-.29-2.78.19-3.91,3.61-8.57,7.45-17,11-25.62.5-1.22.51-3.45-.25-4.23C7.6,79.25,7.34,75,7.78,70.67,9.4,55,14.49,40.24,20.86,25.92c1-2.24,2.25-4.83,4.16-6.08a14.44,14.44,0,0,1,8-2.17c3.35.15,4.27,3.21,4.57,6.22,1,10.59-2,20.46-5.7,30.1-3.06,7.89-6.51,15.64-10.06,23.33-1.41,3.08-.73,3.7,2.39,3.46,12.51-.94,24-5.15,35.05-10.77,21.66-11,43.24-22.15,65-33,18.45-9.16,37.75-16,58.42-17.6,7-.53,14.19.75,21.14,2,3.76.7,6.85.93,10.45-.76,24.83-11.64,51-18.64,78.36-19.86,7.82-.35,15.78,1.7,23.63,3a20.35,20.35,0,0,1,7.3,3.05c1.29.81,1.91,2.68,2.84,4.08a38.36,38.36,0,0,1-4-.83C310.09,6.33,297.56,6,284.92,7.85c-21.3,3.07-42,8.2-61.83,16.85-5.15,2.25-5.08,2.16-.72,5.85,13,11,20.6,24.59,18,42-1.8,12-8,22.12-16.09,31-15.05,16.53-33.81,25.92-55.81,29.28-6.51,1-12.84,1.35-19.19-.8C133.68,126.8,126.6,113.69,131,97.88c4-14.42,13.22-25.59,23.34-36,12.6-13,27.54-23,42.94-32.38a34.61,34.61,0,0,0,3.7-3,36.36,36.36,0,0,0-5-1.55A66.21,66.21,0,0,0,189.31,24.5ZM233.5,67.07c-.41-13.23-4.89-23.58-14.13-31.76-6.56-5.81-6.63-5.91-14.13-1.52-20.76,12.15-40.61,25.45-55.31,45-5,6.67-9.58,13.56-11.5,21.89-3.85,16.77,5.84,28.53,22.79,26.69,24.91-2.71,45.82-13.32,61.22-33.52C228.65,85.73,233.18,76.71,233.5,67.07ZM14.43,71.5A5.88,5.88,0,0,0,14.31,73c.25,1.36.59,2.7.89,4.05a18.27,18.27,0,0,0,2.09-3.17c4-10,8.25-19.9,11.56-30.11,1.8-5.57,1.92-11.69,2.68-17.58.09-.62-.58-1.33-.89-2a7.81,7.81,0,0,0-1.49,1.23,14.58,14.58,0,0,0-1.56,2.53A141.23,141.23,0,0,0,14.43,71.5Z"/><path d="M78.56,5.78c-.63.57-1.56,2.12-2.78,2.4-2.71.63-7.48-2.82-7-4.92A5.11,5.11,0,0,1,71.9.09C74.39-.57,78.36,2.61,78.56,5.78Z"/></g></g></svg>